<svg width="192" height="101" viewBox="0 0 192 101" fill="none" xmlns="http://www.w3.org/2000/svg">
<g filter="url(#filter0_d_1_1247)">
<rect x="30" y="15" width="142" height="51" rx="8" fill="white"/>
</g>
<path d="M41.5859 37H44.2764C46.3906 37 47.6357 35.6865 47.6357 33.4502V33.4404C47.6357 31.209 46.3857 29.9541 44.2764 29.9541H41.5859V37ZM43.0605 35.7793V31.1699H44.1006C45.3945 31.1699 46.1318 31.9756 46.1318 33.4453V33.4551C46.1318 34.9785 45.4189 35.7793 44.1006 35.7793H43.0605ZM49.508 31.0918C49.9377 31.0918 50.2697 30.7549 50.2697 30.3496C50.2697 29.9443 49.9377 29.6074 49.508 29.6074C49.0783 29.6074 48.7463 29.9443 48.7463 30.3496C48.7463 30.7549 49.0783 31.0918 49.508 31.0918ZM48.7951 37H50.2209V31.7656H48.7951V37ZM51.4779 37H52.9037V34.0703C52.9037 33.3086 53.3139 32.8887 54.017 32.8887C54.2221 32.8887 54.4174 32.918 54.5346 32.9668V31.7119C54.4271 31.6826 54.2807 31.6582 54.1244 31.6582C53.5141 31.6582 53.0893 32.0342 52.933 32.6787H52.9037V31.7656H51.4779V37ZM57.6275 37.1074C59.1217 37.1074 59.8443 36.2236 60.0055 35.4521L60.0201 35.3984H58.7115L58.7018 35.4277C58.5992 35.7207 58.2428 36.043 57.6568 36.043C56.9293 36.043 56.4752 35.5547 56.4605 34.7197H60.0641V34.2803C60.0641 32.6982 59.1021 31.6582 57.5689 31.6582C56.0357 31.6582 55.0543 32.7227 55.0543 34.3877V34.3926C55.0543 36.0674 56.026 37.1074 57.6275 37.1074ZM57.5934 32.7227C58.1842 32.7227 58.609 33.0986 58.6969 33.8213H56.4752C56.568 33.1133 57.0074 32.7227 57.5934 32.7227ZM63.4939 37.1074C64.8904 37.1074 65.7938 36.2383 65.8621 35.0957V35.0664H64.534L64.5291 35.1104C64.4314 35.6377 64.075 35.9893 63.5037 35.9893C62.8006 35.9893 62.3611 35.4082 62.3611 34.3828V34.3779C62.3611 33.377 62.8006 32.7764 63.4988 32.7764C64.0896 32.7764 64.4363 33.1572 64.5242 33.6553L64.534 33.6992H65.8572V33.665C65.8035 32.5322 64.9002 31.6582 63.4793 31.6582C61.9119 31.6582 60.9109 32.6982 60.9109 34.373V34.3779C60.9109 36.0674 61.8973 37.1074 63.4939 37.1074ZM68.9307 37.1074C69.2285 37.1074 69.458 37.0781 69.6191 37.0537V36.0088C69.5312 36.0186 69.4385 36.0332 69.3115 36.0332C68.8818 36.0332 68.6621 35.8672 68.6621 35.3789V32.8398H69.6191V31.7656H68.6621V30.4863H67.2217V31.7656H66.4941V32.8398H67.2217V35.5352C67.2217 36.6582 67.7686 37.1074 68.9307 37.1074ZM73.1098 37H75.8002C77.9145 37 79.1596 35.6865 79.1596 33.4502V33.4404C79.1596 31.209 77.9096 29.9541 75.8002 29.9541H73.1098V37ZM74.5844 35.7793V31.1699H75.6244C76.9184 31.1699 77.6557 31.9756 77.6557 33.4453V33.4551C77.6557 34.9785 76.9428 35.7793 75.6244 35.7793H74.5844ZM82.6725 37.1074C84.1666 37.1074 84.8893 36.2236 85.0504 35.4521L85.065 35.3984H83.7564L83.7467 35.4277C83.6441 35.7207 83.2877 36.043 82.7018 36.043C81.9742 36.043 81.5201 35.5547 81.5055 34.7197H85.109V34.2803C85.109 32.6982 84.1471 31.6582 82.6139 31.6582C81.0807 31.6582 80.0992 32.7227 80.0992 34.3877V34.3926C80.0992 36.0674 81.0709 37.1074 82.6725 37.1074ZM82.6383 32.7227C83.2291 32.7227 83.6539 33.0986 83.7418 33.8213H81.5201C81.6129 33.1133 82.0523 32.7227 82.6383 32.7227ZM86.1463 38.709H87.5721V36.1064H87.6014C87.8846 36.7266 88.4754 37.1074 89.2225 37.1074C90.5311 37.1074 91.3416 36.082 91.3416 34.3828V34.3779C91.3416 32.6738 90.5311 31.6582 89.2029 31.6582C88.4607 31.6582 87.8895 32.0439 87.6063 32.6787H87.5721V31.7656H86.1463V38.709ZM88.7342 35.9258C88.0408 35.9258 87.5672 35.3301 87.5672 34.3877V34.3828C87.5672 33.4355 88.0408 32.8398 88.7342 32.8398C89.4422 32.8398 89.8914 33.4209 89.8914 34.3779V34.3828C89.8914 35.335 89.4422 35.9258 88.7342 35.9258ZM94.7861 37.1074C96.3682 37.1074 97.3789 36.0918 97.3789 34.3828V34.373C97.3789 32.6787 96.3486 31.6582 94.7812 31.6582C93.2188 31.6582 92.1934 32.6885 92.1934 34.373V34.3828C92.1934 36.0869 93.1943 37.1074 94.7861 37.1074ZM94.791 35.9893C94.0879 35.9893 93.6436 35.4082 93.6436 34.3828V34.373C93.6436 33.3623 94.0928 32.7764 94.7812 32.7764C95.4746 32.7764 95.9287 33.3623 95.9287 34.373V34.3828C95.9287 35.4033 95.4844 35.9893 94.791 35.9893ZM100.57 37.1074C101.917 37.1074 102.86 36.4336 102.86 35.4082V35.4033C102.86 34.6318 102.41 34.2021 101.317 33.9727L100.428 33.7822C99.9006 33.6699 99.7199 33.4941 99.7199 33.2256V33.2207C99.7199 32.8838 100.028 32.6641 100.521 32.6641C101.048 32.6641 101.356 32.9473 101.404 33.3232L101.409 33.3623H102.723V33.3135C102.689 32.3955 101.912 31.6582 100.521 31.6582C99.1877 31.6582 98.3283 32.3027 98.3283 33.2988V33.3037C98.3283 34.085 98.841 34.5928 99.8566 34.8076L100.745 34.9932C101.258 35.1055 101.434 35.2666 101.434 35.5449V35.5498C101.434 35.8867 101.107 36.0967 100.57 36.0967C99.9982 36.0967 99.6906 35.8574 99.5979 35.4473L99.5881 35.4033H98.1965L98.2014 35.4473C98.3137 36.4385 99.1193 37.1074 100.57 37.1074ZM104.605 31.0918C105.035 31.0918 105.367 30.7549 105.367 30.3496C105.367 29.9443 105.035 29.6074 104.605 29.6074C104.175 29.6074 103.843 29.9443 103.843 30.3496C103.843 30.7549 104.175 31.0918 104.605 31.0918ZM103.892 37H105.318V31.7656H103.892V37ZM108.655 37.1074C108.953 37.1074 109.182 37.0781 109.343 37.0537V36.0088C109.255 36.0186 109.163 36.0332 109.036 36.0332C108.606 36.0332 108.386 35.8672 108.386 35.3789V32.8398H109.343V31.7656H108.386V30.4863H106.946V31.7656H106.218V32.8398H106.946V35.5352C106.946 36.6582 107.493 37.1074 108.655 37.1074Z" fill="#111827"/>
<path d="M43.3906 52.0938C44.6797 52.0938 45.4727 51.4609 45.4727 50.4609V50.457C45.4727 49.5977 44.9883 49.1289 43.832 48.875L43.207 48.7383C42.4727 48.5781 42.1328 48.2891 42.1328 47.8281V47.8242C42.1328 47.2812 42.625 46.9219 43.3789 46.918C44.0938 46.918 44.5742 47.2578 44.6602 47.832L44.668 47.8867H45.3711L45.3672 47.8281C45.3047 46.9062 44.5 46.2695 43.3984 46.2695C42.2383 46.2695 41.418 46.918 41.4141 47.8438V47.8477C41.4141 48.6719 41.9297 49.168 43.0312 49.4102L43.6562 49.5469C44.4297 49.7188 44.7539 49.9961 44.7539 50.4922V50.4961C44.7539 51.0781 44.2422 51.4453 43.4297 51.4453C42.6133 51.4453 42.0664 51.0977 41.9844 50.5312L41.9766 50.4766H41.2734L41.2773 50.5312C41.3477 51.4961 42.1719 52.0938 43.3906 52.0938ZM47.8781 52.0781C48.4953 52.0781 48.9094 51.8008 49.1281 51.4219H49.1438V52H49.8234V47.9375H49.1438V50.3281C49.1438 51.0195 48.7258 51.4766 48.0852 51.4766C47.4602 51.4766 47.1516 51.1133 47.1516 50.4531V47.9375H46.4719V50.5742C46.4719 51.5 46.9875 52.0781 47.8781 52.0781ZM52.7289 53.4453C53.8305 53.4453 54.5219 52.8281 54.5219 51.8867V47.9375H53.8422V48.625H53.8266C53.5766 48.1719 53.1234 47.8594 52.5492 47.8594C51.518 47.8594 50.8109 48.6797 50.8109 49.9414V49.9453C50.8109 51.2148 51.5102 52.0391 52.5336 52.0391C53.1156 52.0391 53.5844 51.75 53.8266 51.3008H53.8422V51.8203C53.8422 52.4492 53.4359 52.8438 52.7211 52.8438C52.1664 52.8438 51.7797 52.6641 51.6508 52.3711L51.6352 52.3359H50.9516L50.9594 52.3711C51.0922 52.9727 51.725 53.4453 52.7289 53.4453ZM52.682 51.4375C51.9594 51.4375 51.5063 50.8672 51.5063 49.9453V49.9414C51.5063 49.0391 51.9594 48.4609 52.682 48.4609C53.3695 48.4609 53.8422 49.0469 53.8422 49.9414V49.9453C53.8422 50.8477 53.3734 51.4375 52.682 51.4375ZM57.3727 52.0781C58.2594 52.0781 58.9234 51.5469 59.0562 50.875L59.0641 50.8359H58.3961L58.3844 50.8711C58.2672 51.2188 57.9039 51.4766 57.3883 51.4766C56.6656 51.4766 56.2047 50.9883 56.1891 50.1523H59.1148V49.9023C59.1148 48.6836 58.4391 47.8594 57.3297 47.8594C56.2203 47.8594 55.5016 48.7227 55.5016 49.9805V49.9844C55.5016 51.2617 56.2047 52.0781 57.3727 52.0781ZM57.3258 48.4609C57.9195 48.4609 58.357 48.832 58.4234 49.6211H56.2008C56.275 48.8633 56.7359 48.4609 57.3258 48.4609ZM61.5438 52.0781C62.45 52.0781 63.1219 51.5781 63.1219 50.8672V50.8633C63.1219 50.2852 62.825 49.9609 62.0047 49.7617L61.3602 49.6055C60.9109 49.4961 60.7273 49.3047 60.7273 49.0273V49.0234C60.7273 48.6641 61.032 48.4258 61.5242 48.4258C62.0281 48.4258 62.3289 48.6875 62.3836 49.082L62.3875 49.1094H63.0359L63.032 49.0586C62.9813 48.3789 62.4148 47.8594 61.5242 47.8594C60.6453 47.8594 60.032 48.3555 60.032 49.0547V49.0586C60.032 49.6445 60.4031 50 61.1688 50.1836L61.8133 50.3398C62.2742 50.4531 62.4266 50.6172 62.4266 50.9102V50.9141C62.4266 51.2812 62.0984 51.5117 61.5477 51.5117C60.993 51.5117 60.6922 51.2734 60.6102 50.8672L60.6023 50.8281H59.9227L59.9266 50.8633C60.0086 51.5898 60.5867 52.0781 61.5438 52.0781ZM65.4492 52.0781C65.582 52.0781 65.7266 52.0625 65.8125 52.0508V51.5C65.7539 51.5039 65.6758 51.5156 65.5938 51.5156C65.2305 51.5156 65.0391 51.3945 65.0391 50.9609V48.5H65.8125V47.9375H65.0391V46.8398H64.3359V47.9375H63.7422V48.5H64.3359V50.9648C64.3359 51.7422 64.7031 52.0781 65.4492 52.0781ZM68.3977 52.0781C69.2844 52.0781 69.9484 51.5469 70.0812 50.875L70.0891 50.8359H69.4211L69.4094 50.8711C69.2922 51.2188 68.9289 51.4766 68.4133 51.4766C67.6906 51.4766 67.2297 50.9883 67.2141 50.1523H70.1398V49.9023C70.1398 48.6836 69.4641 47.8594 68.3547 47.8594C67.2453 47.8594 66.5266 48.7227 66.5266 49.9805V49.9844C66.5266 51.2617 67.2297 52.0781 68.3977 52.0781ZM68.3508 48.4609C68.9445 48.4609 69.382 48.832 69.4484 49.6211H67.2258C67.3 48.8633 67.7609 48.4609 68.3508 48.4609ZM72.6547 52.0781C73.2367 52.0781 73.6898 51.7852 73.9438 51.3125H73.9594V52H74.6391V46.3633H73.9594V48.6172H73.9438C73.6898 48.1484 73.2172 47.8594 72.643 47.8594C71.6234 47.8594 70.9281 48.6836 70.9281 49.9648V49.9688C70.9281 51.25 71.6156 52.0781 72.6547 52.0781ZM72.7875 51.4766C72.0688 51.4766 71.6234 50.9023 71.6234 49.9688V49.9648C71.6234 49.0391 72.0688 48.4609 72.7875 48.4609C73.4711 48.4609 73.9633 49.0586 73.9633 49.9648V49.9688C73.9633 50.8789 73.475 51.4766 72.7875 51.4766ZM79.2391 52.0781C80.1453 52.0781 80.8172 51.5781 80.8172 50.8672V50.8633C80.8172 50.2852 80.5203 49.9609 79.7 49.7617L79.0555 49.6055C78.6063 49.4961 78.4227 49.3047 78.4227 49.0273V49.0234C78.4227 48.6641 78.7273 48.4258 79.2195 48.4258C79.7234 48.4258 80.0242 48.6875 80.0789 49.082L80.0828 49.1094H80.7313L80.7273 49.0586C80.6766 48.3789 80.1102 47.8594 79.2195 47.8594C78.3406 47.8594 77.7273 48.3555 77.7273 49.0547V49.0586C77.7273 49.6445 78.0984 50 78.8641 50.1836L79.5086 50.3398C79.9695 50.4531 80.1219 50.6172 80.1219 50.9102V50.9141C80.1219 51.2812 79.7938 51.5117 79.243 51.5117C78.6883 51.5117 78.3875 51.2734 78.3055 50.8672L78.2977 50.8281H77.618L77.6219 50.8633C77.7039 51.5898 78.282 52.0781 79.2391 52.0781ZM81.8242 53.3672H82.5039V51.3203H82.5195C82.7734 51.7891 83.2461 52.0781 83.8203 52.0781C84.8398 52.0781 85.5352 51.2539 85.5352 49.9727V49.9688C85.5352 48.6875 84.8477 47.8594 83.8086 47.8594C83.2266 47.8594 82.7734 48.1523 82.5195 48.625H82.5039V47.9375H81.8242V53.3672ZM83.6758 51.4766C82.9922 51.4766 82.5 50.8789 82.5 49.9727V49.9688C82.5 49.0586 82.9883 48.4609 83.6758 48.4609C84.3945 48.4609 84.8398 49.0352 84.8398 49.9688V49.9727C84.8398 50.8984 84.3945 51.4766 83.6758 51.4766ZM86.5578 52H87.2375V46.3633H86.5578V52ZM88.8383 47.25C89.0766 47.25 89.2641 47.0586 89.2641 46.8242C89.2641 46.5859 89.0766 46.3984 88.8383 46.3984C88.6039 46.3984 88.4125 46.5859 88.4125 46.8242C88.4125 47.0586 88.6039 47.25 88.8383 47.25ZM88.4984 52H89.1781V47.9375H88.4984V52ZM91.7242 52.0781C91.857 52.0781 92.0016 52.0625 92.0875 52.0508V51.5C92.0289 51.5039 91.9508 51.5156 91.8688 51.5156C91.5055 51.5156 91.3141 51.3945 91.3141 50.9609V48.5H92.0875V47.9375H91.3141V46.8398H90.6109V47.9375H90.0172V48.5H90.6109V50.9648C90.6109 51.7422 90.9781 52.0781 91.7242 52.0781Z" fill="#6B7280"/>
<path d="M138.816 44H139.996V39.3359H141.629V38.3633H137.188V39.3359H138.816V44ZM143.484 44.0859C144.749 44.0859 145.558 43.2734 145.558 41.9062V41.8984C145.558 40.543 144.734 39.7266 143.48 39.7266C142.23 39.7266 141.409 40.5508 141.409 41.8984V41.9062C141.409 43.2695 142.21 44.0859 143.484 44.0859ZM143.488 43.1914C142.925 43.1914 142.57 42.7266 142.57 41.9062V41.8984C142.57 41.0898 142.929 40.6211 143.48 40.6211C144.034 40.6211 144.398 41.0898 144.398 41.8984V41.9062C144.398 42.7227 144.042 43.1914 143.488 43.1914ZM147.998 44.0859C148.604 44.0859 149.065 43.7812 149.288 43.2852H149.311V44H150.452V38.3633H149.311V40.5391H149.288C149.061 40.0312 148.592 39.7266 147.998 39.7266C146.944 39.7266 146.295 40.5391 146.295 41.9023V41.9062C146.295 43.2656 146.944 44.0859 147.998 44.0859ZM148.381 43.1406C147.811 43.1406 147.455 42.668 147.455 41.9062V41.9023C147.455 41.1367 147.815 40.6719 148.381 40.6719C148.932 40.6719 149.315 41.1484 149.315 41.9023V41.9062C149.315 42.6641 148.936 43.1406 148.381 43.1406ZM152.759 44.0664C153.31 44.0664 153.755 43.8047 153.994 43.375H154.017V44H155.158V41.1289C155.158 40.2852 154.459 39.7266 153.377 39.7266C152.271 39.7266 151.607 40.2812 151.545 41.0547L151.541 41.1016H152.584L152.591 41.0664C152.646 40.7969 152.904 40.5977 153.33 40.5977C153.775 40.5977 154.017 40.8281 154.017 41.1992V41.457L152.982 41.5195C151.943 41.5859 151.353 42.0312 151.353 42.793V42.8008C151.353 43.5391 151.92 44.0664 152.759 44.0664ZM152.482 42.7422V42.7344C152.482 42.4375 152.712 42.25 153.154 42.2227L154.017 42.168V42.4688C154.017 42.9062 153.642 43.2344 153.13 43.2344C152.736 43.2344 152.482 43.0508 152.482 42.7422ZM156.829 45.3789C157.759 45.3789 158.321 45.0625 158.649 44.0742L160.087 39.8125H158.884L157.997 43.0859H157.966L157.083 39.8125H155.829L157.309 44L157.259 44.1367C157.157 44.4219 156.97 44.5195 156.63 44.5195C156.462 44.5195 156.329 44.4961 156.247 44.4805V45.3281C156.38 45.3516 156.606 45.3789 156.829 45.3789Z" fill="#2FA2B9"/>
<defs>
<filter id="filter0_d_1_1247" x="0" y="0" width="192" height="101" filterUnits="userSpaceOnUse" color-interpolation-filters="sRGB">
<feFlood flood-opacity="0" result="BackgroundImageFix"/>
<feColorMatrix in="SourceAlpha" type="matrix" values="0 0 0 0 0 0 0 0 0 0 0 0 0 0 0 0 0 0 127 0" result="hardAlpha"/>
<feOffset dx="-5" dy="10"/>
<feGaussianBlur stdDeviation="12.5"/>
<feComposite in2="hardAlpha" operator="out"/>
<feColorMatrix type="matrix" values="0 0 0 0 0.611765 0 0 0 0 0.639216 0 0 0 0 0.686275 0 0 0 0.08 0"/>
<feBlend mode="normal" in2="BackgroundImageFix" result="effect1_dropShadow_1_1247"/>
<feBlend mode="normal" in="SourceGraphic" in2="effect1_dropShadow_1_1247" result="shape"/>
</filter>
</defs>
</svg>
