<svg width="210" height="148" viewBox="0 0 210 148" fill="none" xmlns="http://www.w3.org/2000/svg">
<g filter="url(#filter0_d_1_1253)">
<rect x="40" y="10" width="160" height="97.6744" rx="11.1628" fill="white"/>
</g>
<path d="M54.2051 31.1628H55.5768V25.7395H57.4755V24.6085H52.311V25.7395H54.2051V31.1628ZM58.4313 31.1628H59.7576V28.3739C59.7576 27.738 60.1346 27.2929 60.7206 27.2929C61.3247 27.2929 61.6608 27.6972 61.6608 28.3785V31.1628H62.9871V28.1059C62.9871 26.9295 62.333 26.1937 61.2792 26.1937C60.548 26.1937 60.0347 26.5298 59.7849 27.1339H59.7576V24.6085H58.4313V31.1628ZM64.8105 25.6668C65.2102 25.6668 65.5191 25.3534 65.5191 24.9764C65.5191 24.5994 65.2102 24.286 64.8105 24.286C64.4108 24.286 64.1019 24.5994 64.1019 24.9764C64.1019 25.3534 64.4108 25.6668 64.8105 25.6668ZM64.1473 31.1628H65.4736V26.2936H64.1473V31.1628ZM68.6461 31.2627C69.8997 31.2627 70.7763 30.6359 70.7763 29.6821V29.6775C70.7763 28.9599 70.3585 28.5602 69.341 28.3467L68.5143 28.1695C68.0238 28.0651 67.8557 27.9015 67.8557 27.6517V27.6472C67.8557 27.3338 68.1419 27.1294 68.6006 27.1294C69.0912 27.1294 69.3774 27.3928 69.4228 27.7426L69.4273 27.7789H70.6492V27.7335C70.6174 26.8796 69.8952 26.1937 68.6006 26.1937C67.3606 26.1937 66.5612 26.7933 66.5612 27.7199V27.7244C66.5612 28.4511 67.0381 28.9235 67.9829 29.1234L68.8096 29.296C69.2865 29.4005 69.45 29.5503 69.45 29.8093V29.8138C69.45 30.1272 69.1457 30.3225 68.6461 30.3225C68.1146 30.3225 67.8285 30.0999 67.7422 29.7184L67.7331 29.6775H66.4386L66.4431 29.7184C66.5476 30.6405 67.2971 31.2627 68.6461 31.2627ZM73.8327 31.1628H75.159V28.224C75.159 27.6744 75.4996 27.2929 76.0038 27.2929C76.4944 27.2929 76.7896 27.6018 76.7896 28.1241V31.1628H78.0659V28.2013C78.0659 27.6608 78.3975 27.2929 78.9017 27.2929C79.415 27.2929 79.6966 27.6018 79.6966 28.165V31.1628H81.0229V27.8334C81.0229 26.8523 80.3824 26.1937 79.4286 26.1937C78.7155 26.1937 78.1341 26.5843 77.9161 27.1975H77.8888C77.7253 26.5571 77.2302 26.1937 76.5489 26.1937C75.8948 26.1937 75.3861 26.5571 75.1862 27.1112H75.159V26.2936H73.8327V31.1628ZM84.377 31.2627C85.8486 31.2627 86.7889 30.318 86.7889 28.7282V28.7191C86.7889 27.143 85.8305 26.1937 84.3724 26.1937C82.919 26.1937 81.9651 27.1521 81.9651 28.7191V28.7282C81.9651 30.3134 82.8963 31.2627 84.377 31.2627ZM84.3815 30.2226C83.7275 30.2226 83.3141 29.6821 83.3141 28.7282V28.7191C83.3141 27.7789 83.732 27.2339 84.3724 27.2339C85.0174 27.2339 85.4399 27.7789 85.4399 28.7191V28.7282C85.4399 29.6775 85.0265 30.2226 84.3815 30.2226ZM87.7538 31.1628H89.0801V28.3648C89.0801 27.7289 89.4571 27.2929 90.0521 27.2929C90.6472 27.2929 90.9469 27.6563 90.9469 28.2922V31.1628H92.2732V28.0196C92.2732 26.8796 91.6646 26.1937 90.5927 26.1937C89.8568 26.1937 89.3572 26.5344 89.1074 27.093H89.0801V26.2936H87.7538V31.1628ZM95.3276 31.2627C95.6046 31.2627 95.8181 31.2355 95.968 31.2128V30.2408C95.8863 30.2498 95.8 30.2635 95.6819 30.2635C95.2822 30.2635 95.0778 30.109 95.0778 29.6548V27.2929H95.968V26.2936H95.0778V25.1036H93.7378V26.2936H93.061V27.2929H93.7378V29.8002C93.7378 30.8449 94.2465 31.2627 95.3276 31.2627ZM97.0102 31.1628H98.3365V28.3739C98.3365 27.738 98.7135 27.2929 99.2994 27.2929C99.9035 27.2929 100.24 27.6972 100.24 28.3785V31.1628H101.566V28.1059C101.566 26.9295 100.912 26.1937 99.8581 26.1937C99.1268 26.1937 98.6135 26.5298 98.3637 27.1339H98.3365V24.6085H97.0102V31.1628Z" fill="#111827"/>
<line x1="52.5581" y1="40.6977" x2="52.5581" y2="96.5117" stroke="#F3F4F6" stroke-width="0.930233"/>
<line x1="52.093" y1="96.0466" x2="190.698" y2="96.0466" stroke="#F3F4F6" stroke-width="0.930233"/>
<line x1="52.093" y1="73.721" x2="190.698" y2="73.721" stroke="#F3F4F6" stroke-width="0.930233"/>
<line x1="52.093" y1="51.3954" x2="190.698" y2="51.3954" stroke="#F3F4F6" stroke-width="0.930233"/>
<path d="M53.0233 95.1163C64.1861 91.8605 76.1861 70.4652 86.9768 70.4652C100.465 70.4652 109.302 86.7442 122.326 86.7442C137.674 86.7442 142.791 47.6745 158.14 47.6745C172.558 47.6745 179.07 63.4884 189.768 63.4884" stroke="#2FA2B9" stroke-width="1.39535" stroke-linecap="round"/>
<rect x="69.7675" y="48.1396" width="36.2791" height="14.8837" rx="3.72093" fill="#111827"/>
<path d="M76.2736 57.1898H76.5007V56.8106C77.1593 56.7742 77.6249 56.4358 77.6249 55.8613V55.8567C77.6249 55.3639 77.3114 55.105 76.6801 54.971L76.5007 54.9347V54.1466C76.7709 54.1784 76.9367 54.3147 76.9708 54.5395L76.9753 54.5599H77.5817L77.5772 54.5213C77.5317 53.9967 77.1298 53.6742 76.5007 53.6356V53.2541H76.2736V53.6333C75.6263 53.6651 75.188 54.0217 75.188 54.5531V54.5577C75.188 55.0391 75.4969 55.3207 76.1032 55.4479L76.2736 55.4843V56.2973C75.9443 56.2678 75.7898 56.1179 75.7512 55.909L75.7467 55.884H75.1403L75.1426 55.918C75.1789 56.454 75.6218 56.7765 76.2736 56.8106V57.1898ZM75.8216 54.5077V54.5032C75.8216 54.3215 75.9738 54.1716 76.2736 54.1443V54.887C75.9465 54.8143 75.8216 54.6917 75.8216 54.5077ZM76.9912 55.9203V55.9249C76.9912 56.1292 76.8413 56.2769 76.5007 56.3019V55.532C76.8777 55.6137 76.9912 55.725 76.9912 55.9203ZM78.4058 56.8605H80.7882V56.3155H79.3029V56.2882L79.9888 55.6614C80.5543 55.1413 80.7428 54.8824 80.7428 54.485V54.4804C80.7428 53.9218 80.2658 53.5266 79.5732 53.5266C78.8805 53.5266 78.3672 53.9604 78.3672 54.5781V54.5963H79.0031L79.0054 54.5758C79.0145 54.2806 79.2416 54.0603 79.5777 54.0603C79.8684 54.0603 80.0728 54.2511 80.0751 54.5191V54.5236C80.0751 54.7507 79.9865 54.912 79.5641 55.3071L78.4058 56.3904V56.8605ZM81.3489 57.5441H81.8076L82.1415 56.2882H81.5147L81.3489 57.5441ZM84.1193 56.9173C84.9505 56.9173 85.4547 56.2655 85.4547 55.2231V55.2185C85.4547 54.1761 84.9505 53.5266 84.1193 53.5266C83.2881 53.5266 82.7839 54.1761 82.7839 55.2185V55.2231C82.7839 56.2655 83.2881 56.9173 84.1193 56.9173ZM84.1193 56.3677C83.7105 56.3677 83.4766 55.943 83.4766 55.2231V55.2185C83.4766 54.4986 83.7105 54.0762 84.1193 54.0762C84.5281 54.0762 84.762 54.4986 84.762 55.2185V55.2231C84.762 55.943 84.5281 56.3677 84.1193 56.3677ZM87.4507 56.9173C88.2819 56.9173 88.7861 56.2655 88.7861 55.2231V55.2185C88.7861 54.1761 88.2819 53.5266 87.4507 53.5266C86.6195 53.5266 86.1153 54.1761 86.1153 55.2185V55.2231C86.1153 56.2655 86.6195 56.9173 87.4507 56.9173ZM87.4507 56.3677C87.0419 56.3677 86.808 55.943 86.808 55.2231V55.2185C86.808 54.4986 87.0419 54.0762 87.4507 54.0762C87.8595 54.0762 88.0934 54.4986 88.0934 55.2185V55.2231C88.0934 55.943 87.8595 56.3677 87.4507 56.3677ZM90.7821 56.9173C91.6133 56.9173 92.1175 56.2655 92.1175 55.2231V55.2185C92.1175 54.1761 91.6133 53.5266 90.7821 53.5266C89.9509 53.5266 89.4467 54.1761 89.4467 55.2185V55.2231C89.4467 56.2655 89.9509 56.9173 90.7821 56.9173ZM90.7821 56.3677C90.3733 56.3677 90.1394 55.943 90.1394 55.2231V55.2185C90.1394 54.4986 90.3733 54.0762 90.7821 54.0762C91.1909 54.0762 91.4248 54.4986 91.4248 55.2185V55.2231C91.4248 55.943 91.1909 56.3677 90.7821 56.3677ZM93.0347 56.8991C93.2391 56.8991 93.4027 56.7356 93.4027 56.5312C93.4027 56.3246 93.2391 56.1633 93.0347 56.1633C92.8281 56.1633 92.6668 56.3246 92.6668 56.5312C92.6668 56.7356 92.8281 56.8991 93.0347 56.8991ZM95.3328 56.9173C96.164 56.9173 96.6682 56.2655 96.6682 55.2231V55.2185C96.6682 54.1761 96.164 53.5266 95.3328 53.5266C94.5016 53.5266 93.9974 54.1761 93.9974 55.2185V55.2231C93.9974 56.2655 94.5016 56.9173 95.3328 56.9173ZM95.3328 56.3677C94.924 56.3677 94.6901 55.943 94.6901 55.2231V55.2185C94.6901 54.4986 94.924 54.0762 95.3328 54.0762C95.7416 54.0762 95.9755 54.4986 95.9755 55.2185V55.2231C95.9755 55.943 95.7416 56.3677 95.3328 56.3677ZM98.6642 56.9173C99.4954 56.9173 99.9996 56.2655 99.9996 55.2231V55.2185C99.9996 54.1761 99.4954 53.5266 98.6642 53.5266C97.833 53.5266 97.3288 54.1761 97.3288 55.2185V55.2231C97.3288 56.2655 97.833 56.9173 98.6642 56.9173ZM98.6642 56.3677C98.2554 56.3677 98.0215 55.943 98.0215 55.2231V55.2185C98.0215 54.4986 98.2554 54.0762 98.6642 54.0762C99.073 54.0762 99.3069 54.4986 99.3069 55.2185V55.2231C99.3069 55.943 99.073 56.3677 98.6642 56.3677Z" fill="white"/>
<circle cx="87.4419" cy="70.4652" r="2.32558" fill="white" stroke="#2FA2B9" stroke-width="0.930233"/>
<defs>
<filter id="filter0_d_1_1253" x="0" y="0" width="210" height="147.674" filterUnits="userSpaceOnUse" color-interpolation-filters="sRGB">
<feFlood flood-opacity="0" result="BackgroundImageFix"/>
<feColorMatrix in="SourceAlpha" type="matrix" values="0 0 0 0 0 0 0 0 0 0 0 0 0 0 0 0 0 0 127 0" result="hardAlpha"/>
<feOffset dx="-15" dy="15"/>
<feGaussianBlur stdDeviation="12.5"/>
<feComposite in2="hardAlpha" operator="out"/>
<feColorMatrix type="matrix" values="0 0 0 0 0.419608 0 0 0 0 0.447059 0 0 0 0 0.501961 0 0 0 0.06 0"/>
<feBlend mode="normal" in2="BackgroundImageFix" result="effect1_dropShadow_1_1253"/>
<feBlend mode="normal" in="SourceGraphic" in2="effect1_dropShadow_1_1253" result="shape"/>
</filter>
</defs>
</svg>
