<svg width="208" height="118" viewBox="0 0 208 118" fill="none" xmlns="http://www.w3.org/2000/svg">
<g filter="url(#filter0_d_1_1196)">
<rect x="30" y="15" width="158" height="68" rx="12" fill="white"/>
</g>
<path d="M40.5859 36H42.0605V33.7783H43.418C44.9023 33.7783 45.8936 32.8213 45.8936 31.3711V31.3613C45.8936 29.9111 44.9023 28.9541 43.418 28.9541H40.5859V36ZM43.0566 30.1211C43.9014 30.1211 44.3994 30.5654 44.3994 31.3662V31.376C44.3994 32.1768 43.9014 32.626 43.0566 32.626H42.0605V30.1211H43.0566ZM47.8613 36.083C48.5498 36.083 49.1064 35.7559 49.4043 35.2188H49.4336V36H50.8594V32.4111C50.8594 31.3564 49.9854 30.6582 48.6328 30.6582C47.251 30.6582 46.4209 31.3516 46.3428 32.3184L46.3379 32.377H47.6416L47.6514 32.333C47.7197 31.9961 48.042 31.7471 48.5742 31.7471C49.1309 31.7471 49.4336 32.0352 49.4336 32.499V32.8213L48.1396 32.8994C46.8408 32.9824 46.1035 33.5391 46.1035 34.4912V34.501C46.1035 35.4238 46.8115 36.083 47.8613 36.083ZM47.5146 34.4277V34.418C47.5146 34.0469 47.8027 33.8125 48.3545 33.7783L49.4336 33.71V34.0859C49.4336 34.6328 48.9648 35.043 48.3252 35.043C47.832 35.043 47.5146 34.8135 47.5146 34.4277ZM52.5732 37.7236C53.7354 37.7236 54.4385 37.3281 54.8486 36.0928L56.6455 30.7656H55.1416L54.0332 34.8574H53.9941L52.8906 30.7656H51.3232L53.1738 36L53.1104 36.1709C52.9834 36.5273 52.749 36.6494 52.3242 36.6494C52.1143 36.6494 51.9482 36.6201 51.8457 36.6006V37.6602C52.0117 37.6895 52.2949 37.7236 52.5732 37.7236ZM57.1436 36H58.5693V32.8408C58.5693 32.25 58.9355 31.8398 59.4775 31.8398C60.0049 31.8398 60.3223 32.1719 60.3223 32.7334V36H61.6943V32.8164C61.6943 32.2354 62.0508 31.8398 62.5928 31.8398C63.1445 31.8398 63.4473 32.1719 63.4473 32.7773V36H64.873V32.4209C64.873 31.3662 64.1846 30.6582 63.1592 30.6582C62.3926 30.6582 61.7676 31.0781 61.5332 31.7373H61.5039C61.3281 31.0488 60.7959 30.6582 60.0635 30.6582C59.3604 30.6582 58.8135 31.0488 58.5986 31.6445H58.5693V30.7656H57.1436V36ZM68.1592 36.1074C69.6533 36.1074 70.376 35.2236 70.5371 34.4521L70.5518 34.3984H69.2432L69.2334 34.4277C69.1309 34.7207 68.7744 35.043 68.1885 35.043C67.4609 35.043 67.0068 34.5547 66.9922 33.7197H70.5957V33.2803C70.5957 31.6982 69.6338 30.6582 68.1006 30.6582C66.5674 30.6582 65.5859 31.7227 65.5859 33.3877V33.3926C65.5859 35.0674 66.5576 36.1074 68.1592 36.1074ZM68.125 31.7227C68.7158 31.7227 69.1406 32.0986 69.2285 32.8213H67.0068C67.0996 32.1133 67.5391 31.7227 68.125 31.7227ZM71.333 36H72.7588V32.9922C72.7588 32.3086 73.1641 31.8398 73.8037 31.8398C74.4434 31.8398 74.7656 32.2305 74.7656 32.9141V36H76.1914V32.6211C76.1914 31.3955 75.5371 30.6582 74.3848 30.6582C73.5938 30.6582 73.0566 31.0244 72.7881 31.625H72.7588V30.7656H71.333V36ZM79.1748 36.1074C79.4727 36.1074 79.7021 36.0781 79.8633 36.0537V35.0088C79.7754 35.0186 79.6826 35.0332 79.5557 35.0332C79.126 35.0332 78.9062 34.8672 78.9062 34.3789V31.8398H79.8633V30.7656H78.9062V29.4863H77.4658V30.7656H76.7383V31.8398H77.4658V34.5352C77.4658 35.6582 78.0127 36.1074 79.1748 36.1074Z" fill="#6B7280"/>
<path d="M174 28.5V35.5M170.5 32H177.5" stroke="#2FA2B9" stroke-width="1.5" stroke-linecap="round" stroke-linejoin="round"/>
<path fill-rule="evenodd" clip-rule="evenodd" d="M49.5459 68.8864H56.622V56.1136H49.5459V68.8864Z" fill="#FF5F00"/>
<path fill-rule="evenodd" clip-rule="evenodd" d="M49.9952 62.5002C49.9952 59.9089 51.2031 57.601 53.084 56.1137C51.7083 55.0259 49.9728 54.377 48.0863 54.377C43.6203 54.377 40 58.0139 40 62.5002C40 66.9864 43.6203 70.6234 48.0863 70.6234C49.9728 70.6234 51.7083 69.9744 53.084 68.8866C51.2031 67.3991 49.9952 65.0915 49.9952 62.5002Z" fill="#EB001B"/>
<path fill-rule="evenodd" clip-rule="evenodd" d="M65.9155 67.5336V67.2184H65.8335L65.7394 67.4352L65.645 67.2184H65.563V67.5336H65.6208V67.2958L65.7093 67.5009H65.7692L65.8577 67.2953V67.5336H65.9155ZM65.3963 67.5336V67.2721H65.5015V67.2188H65.2342V67.2721H65.3391V67.5336H65.3963ZM66.168 62.4999C66.168 66.9862 62.5475 70.6231 58.0817 70.6231C56.1952 70.6231 54.4594 69.9742 53.084 68.8863C54.9649 67.3991 56.1727 65.0912 56.1727 62.4999C56.1727 59.9088 54.9649 57.6009 53.084 56.1135C54.4594 55.0257 56.1952 54.3767 58.0817 54.3767C62.5475 54.3767 66.168 58.0136 66.168 62.4999Z" fill="#F79E1B"/>
<path d="M80.6221 61.9414H81.75L81.6748 60.4033L82.9053 61.21L83.4863 60.3213L82.085 59.5762L83.4863 58.8379L82.9121 57.9492L81.6748 58.7559L81.75 57.2246H80.6221L80.6973 58.7559L79.4668 57.9492L78.8857 58.8379L80.2939 59.583L78.8857 60.3281L79.4668 61.2168L80.6973 60.4102L80.6221 61.9414ZM86.8018 61.9414H87.9297L87.8545 60.4033L89.085 61.21L89.666 60.3213L88.2646 59.5762L89.666 58.8379L89.0918 57.9492L87.8545 58.7559L87.9297 57.2246H86.8018L86.877 58.7559L85.6465 57.9492L85.0654 58.8379L86.4736 59.583L85.0654 60.3281L85.6465 61.2168L86.877 60.4102L86.8018 61.9414ZM92.9814 61.9414H94.1094L94.0342 60.4033L95.2646 61.21L95.8457 60.3213L94.4443 59.5762L95.8457 58.8379L95.2715 57.9492L94.0342 58.7559L94.1094 57.2246H92.9814L93.0566 58.7559L91.8262 57.9492L91.2451 58.8379L92.6533 59.583L91.2451 60.3281L91.8262 61.2168L93.0566 60.4102L92.9814 61.9414ZM99.1611 61.9414H100.289L100.214 60.4033L101.444 61.21L102.025 60.3213L100.624 59.5762L102.025 58.8379L101.451 57.9492L100.214 58.7559L100.289 57.2246H99.1611L99.2363 58.7559L98.0059 57.9492L97.4248 58.8379L98.833 59.583L97.4248 60.3281L98.0059 61.2168L99.2363 60.4102L99.1611 61.9414ZM108.772 67H110.502V57.1357H108.759L106.182 58.9473V60.5674L108.731 58.8174H108.772V67ZM116.449 56.9648C114.323 56.9648 112.758 58.3936 112.758 60.3828V60.3965C112.758 62.249 114.098 63.6162 115.998 63.6162C117.331 63.6162 118.315 62.9326 118.705 62.0303H118.746C118.746 62.1396 118.739 62.2422 118.732 62.3447C118.664 64.2109 118.001 65.7285 116.415 65.7285C115.533 65.7285 114.932 65.291 114.665 64.6143L114.645 64.5527H112.895L112.908 64.6279C113.216 66.1182 114.583 67.1709 116.408 67.1709C118.924 67.1709 120.435 65.2227 120.435 61.9619V61.9482C120.435 58.4893 118.623 56.9648 116.449 56.9648ZM116.449 62.2559C115.328 62.2559 114.494 61.4561 114.494 60.335V60.3213C114.494 59.2549 115.376 58.4072 116.47 58.4072C117.577 58.4072 118.438 59.2617 118.438 60.3555V60.3623C118.438 61.4629 117.577 62.2559 116.449 62.2559ZM125.404 56.9648C123.278 56.9648 121.713 58.3936 121.713 60.3828V60.3965C121.713 62.249 123.053 63.6162 124.953 63.6162C126.286 63.6162 127.271 62.9326 127.66 62.0303H127.701C127.701 62.1396 127.694 62.2422 127.688 62.3447C127.619 64.2109 126.956 65.7285 125.37 65.7285C124.488 65.7285 123.887 65.291 123.62 64.6143L123.6 64.5527H121.85L121.863 64.6279C122.171 66.1182 123.538 67.1709 125.363 67.1709C127.879 67.1709 129.39 65.2227 129.39 61.9619V61.9482C129.39 58.4893 127.578 56.9648 125.404 56.9648ZM125.404 62.2559C124.283 62.2559 123.449 61.4561 123.449 60.335V60.3213C123.449 59.2549 124.331 58.4072 125.425 58.4072C126.532 58.4072 127.394 59.2617 127.394 60.3555V60.3623C127.394 61.4629 126.532 62.2559 125.404 62.2559ZM134.435 67.1709C136.848 67.1709 138.311 65.209 138.311 62.0713V62.0576C138.311 58.9199 136.848 56.9648 134.435 56.9648C132.015 56.9648 130.559 58.9199 130.559 62.0576V62.0713C130.559 65.209 132.015 67.1709 134.435 67.1709ZM134.435 65.7285C133.102 65.7285 132.336 64.3477 132.336 62.0713V62.0576C132.336 59.7812 133.102 58.4141 134.435 58.4141C135.761 58.4141 136.533 59.7812 136.533 62.0576V62.0713C136.533 64.3477 135.761 65.7285 134.435 65.7285Z" fill="#111827"/>
<defs>
<filter id="filter0_d_1_1196" x="0" y="0" width="208" height="118" filterUnits="userSpaceOnUse" color-interpolation-filters="sRGB">
<feFlood flood-opacity="0" result="BackgroundImageFix"/>
<feColorMatrix in="SourceAlpha" type="matrix" values="0 0 0 0 0 0 0 0 0 0 0 0 0 0 0 0 0 0 127 0" result="hardAlpha"/>
<feOffset dx="-5" dy="10"/>
<feGaussianBlur stdDeviation="12.5"/>
<feComposite in2="hardAlpha" operator="out"/>
<feColorMatrix type="matrix" values="0 0 0 0 0.611765 0 0 0 0 0.639216 0 0 0 0 0.686275 0 0 0 0.08 0"/>
<feBlend mode="normal" in2="BackgroundImageFix" result="effect1_dropShadow_1_1196"/>
<feBlend mode="normal" in="SourceGraphic" in2="effect1_dropShadow_1_1196" result="shape"/>
</filter>
</defs>
</svg>
