<svg width="20" height="24" viewBox="0 0 20 24" fill="none" xmlns="http://www.w3.org/2000/svg">
<g clip-path="url(#clip0_8004_1021)">
<path d="M19.1094 18.0875C18.759 18.8983 18.3442 19.6447 17.8636 20.3309C17.2085 21.2664 16.6721 21.914 16.2588 22.2736C15.618 22.8638 14.9314 23.1661 14.1962 23.1833C13.6684 23.1833 13.0319 23.0328 12.291 22.7277C11.5476 22.424 10.8645 22.2736 10.2399 22.2736C9.58476 22.2736 8.88217 22.424 8.13067 22.7277C7.37802 23.0328 6.77169 23.1919 6.30812 23.2076C5.6031 23.2377 4.90037 22.9268 4.19893 22.2736C3.75123 21.8825 3.19125 21.212 2.52042 20.2622C1.80066 19.2479 1.20893 18.0717 0.745354 16.7308C0.24888 15.2824 0 13.8799 0 12.522C0 10.9666 0.33556 9.62514 1.00768 8.50096C1.53591 7.59799 2.23864 6.88569 3.11816 6.36278C3.99768 5.83988 4.948 5.57341 5.97142 5.55637C6.5314 5.55637 7.26574 5.72986 8.1783 6.07082C9.08829 6.41293 9.67258 6.58642 9.92876 6.58642C10.1203 6.58642 10.7694 6.38356 11.8697 5.97913C12.9103 5.60407 13.7886 5.44878 14.508 5.50995C16.4576 5.66754 17.9223 6.43728 18.8963 7.82405C17.1527 8.88218 16.2902 10.3642 16.3074 12.2654C16.3231 13.7463 16.8595 14.9787 17.9137 15.9572C18.3914 16.4113 18.9249 16.7623 19.5185 17.0116C19.3898 17.3855 19.2539 17.7436 19.1094 18.0875ZM14.6382 0.464848C14.6382 1.62557 14.2148 2.70933 13.3709 3.71244C12.3525 4.90495 11.1207 5.59404 9.78487 5.48531C9.76784 5.34606 9.75797 5.1995 9.75797 5.04549C9.75797 3.93121 10.2423 2.7387 11.1024 1.76366C11.5317 1.26998 12.0779 0.85949 12.7401 0.532037C13.4009 0.209469 14.026 0.0310821 14.6139 0.000534058C14.631 0.155704 14.6382 0.310884 14.6382 0.464833V0.464848Z" fill="black"/>
</g>
<defs>
<clipPath id="clip0_8004_1021">
<rect width="19.5185" height="23.2091" fill="white"/>
</clipPath>
</defs>
</svg>
