<svg width="91" height="77" viewBox="0 0 91 77" fill="none" xmlns="http://www.w3.org/2000/svg">
<circle cx="36" cy="40.2907" r="36" fill="#F9FAFB"/>
<circle cx="1" cy="69.2907" r="1" fill="#86EFAC"/>
<circle cx="69" cy="75.2907" r="1" fill="#FDE047"/>
<circle cx="13" cy="5.29071" r="1" fill="#E5E7EB"/>
<path opacity="0.8" fill-rule="evenodd" clip-rule="evenodd" d="M31.6 39.5097V32.5907C31.6 30.5486 32.4113 28.5901 33.8553 27.146C35.2993 25.702 37.2579 24.8907 39.3 24.8907C41.3422 24.8907 43.3007 25.702 44.7448 27.146C46.1888 28.5901 47 30.5486 47 32.5907V39.5097C50.1812 40.4557 52.5 43.4037 52.5 46.8907V53.4907C52.5 55.5329 51.6888 57.4914 50.2448 58.9355C48.8007 60.3795 46.8422 61.1907 44.8 61.1907H33.8C31.7579 61.1907 29.7993 60.3795 28.3553 58.9355C26.9113 57.4914 26.1 55.5329 26.1 53.4907V46.8907C26.1003 45.2324 26.6357 43.6184 27.6266 42.2886C28.6175 40.9588 30.011 39.9842 31.6 39.5097ZM34.9 39.1907V32.5907C34.9 31.4238 35.3636 30.3046 36.1888 29.4795C37.0139 28.6543 38.1331 28.1907 39.3 28.1907C40.467 28.1907 41.5861 28.6543 42.4113 29.4795C43.2365 30.3046 43.7 31.4238 43.7 32.5907V39.1907H34.9Z" fill="#97EDFF"/>
<path fill-rule="evenodd" clip-rule="evenodd" d="M30.5 45.7907C30.5 46.9577 30.9636 48.0769 31.7887 48.902C32.6139 49.7272 33.733 50.1908 34.9 50.1908C36.067 50.1908 37.1861 49.7272 38.0113 48.902C38.8364 48.0769 39.3 46.9577 39.3 45.7907C39.3 44.6238 38.8364 43.5046 38.0113 42.6795C37.1861 41.8543 36.067 41.3907 34.9 41.3907C33.733 41.3907 32.6139 41.8543 31.7887 42.6795C30.9636 43.5046 30.5 44.6238 30.5 45.7907ZM37.1 45.7907C37.1 46.3742 36.8682 46.9338 36.4556 47.3464C36.0431 47.759 35.4835 47.9908 34.9 47.9908C34.3165 47.9908 33.7569 47.759 33.3444 47.3464C32.9318 46.9338 32.7 46.3742 32.7 45.7907C32.7 45.2073 32.9318 44.6477 33.3444 44.2351C33.7569 43.8225 34.3165 43.5907 34.9 43.5907C35.4835 43.5907 36.0431 43.8225 36.4556 44.2351C36.8682 44.6477 37.1 45.2073 37.1 45.7907Z" fill="#0A6375"/>
<path fill-rule="evenodd" clip-rule="evenodd" d="M40.4 34.7907H29.4C27.3578 34.7907 25.3993 35.602 23.9553 37.046C22.5113 38.49 21.7 40.4485 21.7 42.4907V49.0907C21.7 51.1329 22.5113 53.0914 23.9553 54.5354C25.3993 55.9795 27.3578 56.7907 29.4 56.7907H40.4C42.4422 56.7907 44.4007 55.9795 45.8447 54.5354C47.2888 53.0914 48.1 51.1329 48.1 49.0907V42.4907C48.1 40.4485 47.2888 38.49 45.8447 37.046C44.4007 35.602 42.4422 34.7907 40.4 34.7907ZM23.9 42.4907C23.9 41.032 24.4795 39.6331 25.5109 38.6016C26.5424 37.5702 27.9413 36.9907 29.4 36.9907H40.4C41.8587 36.9907 43.2576 37.5702 44.2891 38.6016C45.3205 39.6331 45.9 41.032 45.9 42.4907V49.0907C45.9 50.5494 45.3205 51.9483 44.2891 52.9798C43.2576 54.0112 41.8587 54.5907 40.4 54.5907H29.4C27.9413 54.5907 26.5424 54.0112 25.5109 52.9798C24.4795 51.9483 23.9 50.5494 23.9 49.0907V42.4907Z" fill="#0A6375"/>
<path d="M29.4 35.8907C29.4 36.1825 29.2841 36.4623 29.0778 36.6685C28.8715 36.8748 28.5918 36.9907 28.3 36.9907C28.0083 36.9907 27.7285 36.8748 27.5222 36.6685C27.3159 36.4623 27.2 36.1825 27.2 35.8907V28.1907C27.2 27.1795 27.3992 26.1783 27.7861 25.2441C28.1731 24.3099 28.7403 23.461 29.4553 22.746C30.1703 22.031 31.0191 21.4638 31.9533 21.0769C32.8876 20.6899 33.8888 20.4907 34.9 20.4907C35.9112 20.4907 36.9125 20.6899 37.8467 21.0769C38.7809 21.4638 39.6297 22.031 40.3447 22.746C41.0597 23.461 41.6269 24.3099 42.0139 25.2441C42.4008 26.1783 42.6 27.1795 42.6 28.1907V35.8907C42.6 36.1825 42.4841 36.4623 42.2778 36.6685C42.0715 36.8748 41.7917 36.9907 41.5 36.9907C41.2083 36.9907 40.9285 36.8748 40.7222 36.6685C40.5159 36.4623 40.4 36.1825 40.4 35.8907V28.1907C40.4 26.732 39.8205 25.3331 38.7891 24.3016C37.7576 23.2702 36.3587 22.6907 34.9 22.6907C33.4413 22.6907 32.0424 23.2702 31.0109 24.3016C29.9795 25.3331 29.4 26.732 29.4 28.1907V35.8907Z" fill="#0A6375"/>
<path fill-rule="evenodd" clip-rule="evenodd" d="M79.9714 22.9245C82.0454 22.754 84.1697 22.8517 86.2281 22.9603C86.6712 22.985 87.028 23.329 86.993 23.722C86.989 24.1205 86.6178 24.4225 86.2058 24.403C84.211 24.2962 82.1516 24.1947 80.174 24.3621C79.7522 24.3996 79.3546 24.1068 79.2945 23.7092C79.2344 23.312 79.5496 22.9623 79.9714 22.9245Z" fill="#FFF1EE"/>
<path fill-rule="evenodd" clip-rule="evenodd" d="M75.1771 14.6818C78.8828 12.2476 82.9269 10.2657 86.5841 7.741C86.9123 7.50293 87.4117 7.57225 87.6768 7.89184C87.9418 8.21172 87.8963 8.66592 87.5371 8.8987C83.8783 11.4322 79.8328 13.4226 76.1256 15.8656C75.7676 16.0915 75.2702 16.0109 75.0065 15.6837C74.7737 15.362 74.8191 14.9078 75.1771 14.6818Z" fill="#FFF1EE"/>
<path fill-rule="evenodd" clip-rule="evenodd" d="M71.1358 2.20261C70.7522 3.89177 70.3688 5.58096 69.9851 7.27041C69.9186 7.66095 69.4944 7.899 69.0629 7.80596C68.6315 7.71264 68.3778 7.32733 68.4444 6.9365C68.8285 5.2445 69.2123 3.55276 69.5964 1.86105C69.694 1.47579 70.1177 1.2397 70.5488 1.33501C70.9488 1.42503 71.2333 1.81764 71.1358 2.20261Z" fill="#FFF1EE"/>
<path fill-rule="evenodd" clip-rule="evenodd" d="M77.9487 21.9534C80.0391 21.7816 82.1803 21.88 84.255 21.9895C84.7016 22.0144 85.0611 22.3611 85.0259 22.7572C85.0218 23.1589 84.6478 23.4632 84.2324 23.4436C82.2219 23.336 80.1461 23.2337 78.1529 23.4024C77.7278 23.4402 77.327 23.145 77.2664 22.7443C77.2058 22.3439 77.5236 21.9915 77.9487 21.9534Z" fill="#FFB9AA"/>
<path fill-rule="evenodd" clip-rule="evenodd" d="M73.1165 13.6455C76.8516 11.192 80.9277 9.19439 84.6139 6.64973C84.9446 6.40977 85.448 6.47965 85.7151 6.80177C85.9823 7.12417 85.9364 7.58197 85.5743 7.8166C81.8866 10.3701 77.8091 12.3763 74.0725 14.8386C73.7117 15.0664 73.2104 14.9851 72.9445 14.6553C72.7099 14.3311 72.7557 13.8732 73.1165 13.6455Z" fill="#FFB9AA"/>
<path fill-rule="evenodd" clip-rule="evenodd" d="M69.0432 1.06747C68.6565 2.77001 68.2701 4.47257 67.8834 6.1754C67.8163 6.56903 67.3888 6.80897 66.9539 6.71519C66.519 6.62113 66.2633 6.23277 66.3304 5.83884C66.7176 4.13345 67.1045 2.42831 67.4915 0.723203C67.5899 0.334895 68.017 0.0969402 68.4515 0.193004C68.8547 0.283737 69.1415 0.679452 69.0432 1.06747Z" fill="#FFB9AA"/>
</svg>
